<svg width="570" height="570" viewBox="0 0 570 570" fill="none" xmlns="http://www.w3.org/2000/svg">
<circle cx="285" cy="285" r="285" fill="#484848"/>
<g filter="url(#filter0_d_6_4)">
<circle cx="285.5" cy="285.5" r="267.5" transform="rotate(90 285.5 285.5)" fill="#154775"/>
</g>
<g filter="url(#filter1_d_6_4)">
<path d="M285.5 538C282 377.5 33 424.952 33 285.5C33 146.048 146.048 33 285.5 33C285.5 177.5 538 146.048 538 285.5C538 424.952 282 377.5 285.5 538Z" fill="#3D603C"/>
</g>
<g filter="url(#filter2_d_6_4)">
<path d="M285.5 538C282 377.5 97 424.952 97 285.5C97 214 157.5 93 285.5 33C285.5 177.5 487 146.048 487 285.5C487 424.952 282 377.5 285.5 538Z" fill="#484848"/>
</g>
<g filter="url(#filter3_d_6_4)">
<path d="M206.125 252.75C206.375 254.167 206.542 255.167 206.625 255.75C206.792 256.25 206.875 256.958 206.875 257.875C206.875 260.625 206.25 263.208 205 265.625C203.833 267.958 202.208 269.625 200.125 270.625C198.458 268.375 196.417 266.458 194 264.875C191.583 263.208 188.917 261.875 186 260.875C183.167 259.792 180.208 259 177.125 258.5C174.042 258 171.042 257.75 168.125 257.75C165.208 257.75 162.458 258 159.875 258.5C157.375 258.917 155.125 259.542 153.125 260.375C151.208 261.125 149.667 262.083 148.5 263.25C147.417 264.417 146.875 265.75 146.875 267.25C147.125 269.083 148.25 270.958 150.25 272.875C152.25 274.708 154.708 276.542 157.625 278.375C160.542 280.125 163.75 281.875 167.25 283.625C170.833 285.375 174.333 287.042 177.75 288.625C182 290.625 185.667 292.5 188.75 294.25C191.833 295.917 194.375 297.792 196.375 299.875C198.375 301.875 199.875 304.167 200.875 306.75C201.875 309.333 202.375 312.458 202.375 316.125C202.375 320.375 201.667 324.375 200.25 328.125C198.833 331.792 196.75 335 194 337.75C191.333 340.5 188.083 342.625 184.25 344.125C180.417 345.708 176.125 346.5 171.375 346.5C166.708 346.5 161.667 345.792 156.25 344.375C150.833 342.958 145.75 341 141 338.5C136.333 336.083 132.417 333.292 129.25 330.125C126.167 326.875 124.625 323.458 124.625 319.875C124.625 318.208 125.083 316.083 126 313.5C127 310.917 128.75 308.208 131.25 305.375C131.5 307.875 132.833 310.833 135.25 314.25C137.75 317.667 141.458 320.833 146.375 323.75C150.958 326.417 155.667 328.375 160.5 329.625C165.417 330.792 170 331.375 174.25 331.375C178.917 331.375 182.708 330.792 185.625 329.625C188.542 328.458 190.833 327.083 192.5 325.5C194.167 323.833 195.333 322.167 196 320.5C196.667 318.833 197.042 317.5 197.125 316.5C197.042 314.833 196.25 313.25 194.75 311.75C193.333 310.167 191.375 308.667 188.875 307.25C186.458 305.75 183.625 304.25 180.375 302.75C177.125 301.25 173.75 299.75 170.25 298.25C165 295.917 160.458 293.75 156.625 291.75C152.875 289.667 149.75 287.583 147.25 285.5C144.833 283.333 143.042 281.083 141.875 278.75C140.792 276.417 140.25 273.75 140.25 270.75C140.25 266.083 141.667 261.667 144.5 257.5C147.333 253.333 151.417 250.167 156.75 248C159.417 246.833 162.25 246 165.25 245.5C168.333 245 171.333 244.75 174.25 244.75C179.75 244.75 185.125 245.5 190.375 247C195.625 248.5 200.875 250.417 206.125 252.75ZM210.67 334.875C210.67 331.958 210.962 328.542 211.545 324.625C212.128 320.625 212.962 316.375 214.045 311.875C215.212 307.375 216.545 302.667 218.045 297.75C219.628 292.833 221.378 287.917 223.295 283C224.962 278.583 226.878 274.125 229.045 269.625C231.295 265.125 233.712 260.708 236.295 256.375C238.878 252.042 241.545 247.917 244.295 244C247.128 240.083 249.962 236.5 252.795 233.25C254.128 233.25 255.545 233.417 257.045 233.75C258.628 234.083 260.128 234.542 261.545 235.125C263.045 235.625 264.378 236.25 265.545 237C266.795 237.75 267.795 238.5 268.545 239.25C262.295 245.667 256.67 252.167 251.67 258.75C246.67 265.25 242.712 271.375 239.795 277.125C238.212 280.292 236.753 283.25 235.42 286C234.17 288.75 233.003 291.5 231.92 294.25C230.837 296.917 229.837 299.625 228.92 302.375C228.087 305.042 227.295 307.875 226.545 310.875C242.545 290.458 254.42 280.25 262.17 280.25C264.337 280.25 266.67 280.958 269.17 282.375C271.67 283.792 273.878 285.708 275.795 288.125C273.212 290.958 270.545 294.375 267.795 298.375C265.045 302.375 262.503 306.417 260.17 310.5C257.92 314.5 256.045 318.25 254.545 321.75C253.128 325.167 252.42 327.708 252.42 329.375C252.42 330.208 252.545 330.792 252.795 331.125C253.045 331.375 253.587 331.5 254.42 331.5C255.67 331.5 256.67 331.333 257.42 331C258.17 330.667 258.628 330.5 258.795 330.5C259.212 331.167 259.462 331.625 259.545 331.875C259.628 332.125 259.67 332.333 259.67 332.5C259.67 332.833 259.17 333.333 258.17 334C257.17 334.583 255.962 335.208 254.545 335.875C253.212 336.458 251.878 337 250.545 337.5C249.212 338 248.212 338.25 247.545 338.25C246.712 338.25 245.878 338 245.045 337.5C244.212 337.083 243.462 336.5 242.795 335.75C242.212 335 241.712 334.167 241.295 333.25C240.962 332.333 240.795 331.375 240.795 330.375C240.795 329.125 241.128 327.292 241.795 324.875C242.545 322.375 243.545 319.5 244.795 316.25C246.045 312.917 247.545 309.292 249.295 305.375C251.045 301.458 252.92 297.458 254.92 293.375C254.92 293.042 254.753 292.875 254.42 292.875C254.17 292.875 253.503 293.208 252.42 293.875C251.42 294.542 250.462 295.208 249.545 295.875C246.545 298.125 243.503 300.917 240.42 304.25C237.42 307.5 234.462 311.083 231.545 315C228.712 318.917 226.003 323.083 223.42 327.5C220.92 331.833 218.753 336.208 216.92 340.625C216.67 341.208 216.295 341.75 215.795 342.25C215.295 342.75 214.878 343 214.545 343C214.295 343 213.92 342.708 213.42 342.125C213.003 341.542 212.587 340.792 212.17 339.875C211.837 339.042 211.503 338.167 211.17 337.25C210.837 336.333 210.67 335.542 210.67 334.875ZM318.495 286.5C319.328 286.5 320.287 286.667 321.37 287C322.537 287.25 323.578 287.625 324.495 288.125C325.412 288.542 326.162 289 326.745 289.5C327.412 290 327.745 290.458 327.745 290.875C326.078 294.375 324.537 297.917 323.12 301.5C321.703 305 320.495 308.375 319.495 311.625C318.495 314.875 317.703 317.917 317.12 320.75C316.62 323.583 316.37 326.042 316.37 328.125C316.37 330.458 316.62 332.417 317.12 334C317.62 335.5 318.453 336.583 319.62 337.25C318.62 337.917 317.328 338.458 315.745 338.875C314.162 339.292 312.745 339.5 311.495 339.5C306.995 339.5 304.745 336.417 304.745 330.25C304.745 325.5 306.328 319 309.495 310.75C307.828 314.583 305.912 318.208 303.745 321.625C301.578 324.958 299.37 327.917 297.12 330.5C294.87 333.083 292.578 335.208 290.245 336.875C287.995 338.458 285.912 339.417 283.995 339.75C280.912 339.583 278.412 338.125 276.495 335.375C274.578 332.542 273.62 328.958 273.62 324.625C273.62 319.958 274.62 315.042 276.62 309.875C278.62 304.708 281.162 299.917 284.245 295.5C287.412 291.083 290.828 287.417 294.495 284.5C298.162 281.5 301.703 279.917 305.12 279.75C305.953 280 306.87 280.5 307.87 281.25C308.953 282 309.953 282.875 310.87 283.875C311.87 284.875 312.703 285.917 313.37 287C314.037 288 314.412 288.875 314.495 289.625C311.162 290.125 307.703 291.75 304.12 294.5C300.62 297.25 297.412 300.583 294.495 304.5C291.662 308.333 289.328 312.458 287.495 316.875C285.662 321.292 284.745 325.417 284.745 329.25C284.745 330.833 285.328 331.833 286.495 332.25C288.912 331.75 291.703 329.708 294.87 326.125C298.037 322.458 301.87 316.833 306.37 309.25C307.203 307.75 308.12 306.083 309.12 304.25C310.203 302.417 311.287 300.5 312.37 298.5C313.453 296.5 314.495 294.5 315.495 292.5C316.578 290.417 317.578 288.417 318.495 286.5ZM324.961 378.375C323.794 378.042 323.128 376.792 322.961 374.625C322.628 373.542 322.378 372.25 322.211 370.75C322.128 369.25 322.086 367.542 322.086 365.625C322.086 363.875 322.378 361.458 322.961 358.375C323.544 355.375 324.336 351.958 325.336 348.125C326.419 344.292 327.711 340.167 329.211 335.75C330.711 331.25 332.378 326.708 334.211 322.125C336.461 316.375 338.419 311.417 340.086 307.25C341.753 303 343.128 299.333 344.211 296.25C345.378 293.167 346.294 290.625 346.961 288.625C347.711 286.625 348.294 284.917 348.711 283.5C349.044 282.5 349.544 281.292 350.211 279.875C350.878 278.458 351.628 277.042 352.461 275.625C353.378 274.125 354.294 272.75 355.211 271.5C356.128 270.167 356.961 269.167 357.711 268.5C360.628 268.917 363.378 269.667 365.961 270.75C368.544 271.833 370.128 272.875 370.711 273.875C369.544 274.958 368.211 276.667 366.711 279C365.211 281.25 363.753 283.75 362.336 286.5C360.919 289.167 359.628 291.917 358.461 294.75C357.294 297.583 356.419 300.083 355.836 302.25C356.669 300.833 357.753 299.292 359.086 297.625C360.419 295.958 362.461 293.667 365.211 290.75C368.294 287.583 371.169 285.167 373.836 283.5C376.586 281.75 378.961 280.875 380.961 280.875C384.128 280.875 386.711 281.75 388.711 283.5C390.794 285.25 391.836 287.5 391.836 290.25C391.836 296.25 390.836 302.208 388.836 308.125C386.836 313.958 383.961 319.25 380.211 324C378.794 325.833 377.128 327.583 375.211 329.25C373.294 330.917 371.294 332.417 369.211 333.75C367.128 335 365.086 336 363.086 336.75C361.086 337.5 359.294 337.875 357.711 337.875C356.211 337.875 354.878 337.583 353.711 337C352.628 336.333 351.878 335.542 351.461 334.625C354.711 332.708 357.878 330.042 360.961 326.625C364.044 323.208 366.878 319.292 369.461 314.875C372.128 310.375 374.419 305.542 376.336 300.375C378.336 295.208 379.836 289.958 380.836 284.625C377.669 286.292 374.794 288.125 372.211 290.125C369.711 292.042 367.211 294.583 364.711 297.75C361.711 301.417 359.336 304.375 357.586 306.625C355.836 308.875 354.378 310.792 353.211 312.375C352.128 313.958 351.211 315.458 350.461 316.875C349.794 318.208 349.044 319.875 348.211 321.875C347.044 324.542 345.669 328.083 344.086 332.5C342.586 336.833 341.003 341.708 339.336 347.125C337.753 352.542 336.128 358.292 334.461 364.375C332.878 370.542 331.336 376.667 329.836 382.75C328.919 382.583 328.128 381.917 327.461 380.75C326.794 380 326.294 379.458 325.961 379.125C325.711 378.792 325.378 378.542 324.961 378.375ZM441.092 285.25C440.758 290.417 439.842 294.875 438.342 298.625C436.842 302.292 434.675 305.542 431.842 308.375C429.092 311.125 425.717 313.625 421.717 315.875C417.717 318.125 413.05 320.292 407.717 322.375C407.717 322.875 407.675 323.417 407.592 324C407.592 324.5 407.592 325.042 407.592 325.625C407.592 326.708 407.675 327.833 407.842 329C408.008 330.167 408.3 331.25 408.717 332.25C409.133 333.25 409.717 334.083 410.467 334.75C411.217 335.333 412.175 335.625 413.342 335.625C415.592 335.625 417.8 335.125 419.967 334.125C422.133 333.125 424.175 331.917 426.092 330.5C428.092 329 429.925 327.417 431.592 325.75C433.342 324 434.883 322.417 436.217 321C437.05 321.75 437.758 322.458 438.342 323.125C434.592 328.125 430.467 332.292 425.967 335.625C421.55 338.875 417.342 340.958 413.342 341.875C407.592 341.208 403.092 339.125 399.842 335.625C396.675 332.042 395.092 327.75 395.092 322.75C395.092 319.333 395.55 315.875 396.467 312.375C397.467 308.792 398.8 305.375 400.467 302.125C402.217 298.792 404.217 295.667 406.467 292.75C408.8 289.833 411.258 287.292 413.842 285.125C416.508 282.958 419.217 281.25 421.967 280C424.8 278.75 427.592 278.125 430.342 278.125C434.175 278.625 437.758 281 441.092 285.25ZM432.467 289.375C430.217 289.708 427.883 290.625 425.467 292.125C423.05 293.625 420.758 295.625 418.592 298.125C416.508 300.625 414.592 303.542 412.842 306.875C411.092 310.208 409.717 313.792 408.717 317.625C415.383 314.292 420.925 310.208 425.342 305.375C429.758 300.458 432.133 295.125 432.467 289.375Z" fill="#DADADA"/>
</g>
<defs>
<filter id="filter0_d_6_4" x="14" y="18" width="543" height="544" filterUnits="userSpaceOnUse" color-interpolation-filters="sRGB">
<feFlood flood-opacity="0" result="BackgroundImageFix"/>
<feColorMatrix in="SourceAlpha" type="matrix" values="0 0 0 0 0 0 0 0 0 0 0 0 0 0 0 0 0 0 127 0" result="hardAlpha"/>
<feOffset dy="5"/>
<feGaussianBlur stdDeviation="2"/>
<feComposite in2="hardAlpha" operator="out"/>
<feColorMatrix type="matrix" values="0 0 0 0 1 0 0 0 0 1 0 0 0 0 1 0 0 0 0.25 0"/>
<feBlend mode="normal" in2="BackgroundImageFix" result="effect1_dropShadow_6_4"/>
<feBlend mode="normal" in="SourceGraphic" in2="effect1_dropShadow_6_4" result="shape"/>
</filter>
<filter id="filter1_d_6_4" x="29" y="33" width="513" height="529" filterUnits="userSpaceOnUse" color-interpolation-filters="sRGB">
<feFlood flood-opacity="0" result="BackgroundImageFix"/>
<feColorMatrix in="SourceAlpha" type="matrix" values="0 0 0 0 0 0 0 0 0 0 0 0 0 0 0 0 0 0 127 0" result="hardAlpha"/>
<feOffset dy="20"/>
<feGaussianBlur stdDeviation="2"/>
<feComposite in2="hardAlpha" operator="out"/>
<feColorMatrix type="matrix" values="0 0 0 0 1 0 0 0 0 1 0 0 0 0 1 0 0 0 0.15 0"/>
<feBlend mode="normal" in2="BackgroundImageFix" result="effect1_dropShadow_6_4"/>
<feBlend mode="normal" in="SourceGraphic" in2="effect1_dropShadow_6_4" result="shape"/>
</filter>
<filter id="filter2_d_6_4" x="88" y="9" width="399" height="529" filterUnits="userSpaceOnUse" color-interpolation-filters="sRGB">
<feFlood flood-opacity="0" result="BackgroundImageFix"/>
<feColorMatrix in="SourceAlpha" type="matrix" values="0 0 0 0 0 0 0 0 0 0 0 0 0 0 0 0 0 0 127 0" result="hardAlpha"/>
<feOffset dx="-5" dy="-20"/>
<feGaussianBlur stdDeviation="2"/>
<feComposite in2="hardAlpha" operator="out"/>
<feColorMatrix type="matrix" values="0 0 0 0 1 0 0 0 0 1 0 0 0 0 1 0 0 0 0.15 0"/>
<feBlend mode="normal" in2="BackgroundImageFix" result="effect1_dropShadow_6_4"/>
<feBlend mode="normal" in="SourceGraphic" in2="effect1_dropShadow_6_4" result="shape"/>
</filter>
<filter id="filter3_d_6_4" x="120.625" y="233.25" width="324.467" height="158.5" filterUnits="userSpaceOnUse" color-interpolation-filters="sRGB">
<feFlood flood-opacity="0" result="BackgroundImageFix"/>
<feColorMatrix in="SourceAlpha" type="matrix" values="0 0 0 0 0 0 0 0 0 0 0 0 0 0 0 0 0 0 127 0" result="hardAlpha"/>
<feOffset dy="5"/>
<feGaussianBlur stdDeviation="2"/>
<feComposite in2="hardAlpha" operator="out"/>
<feColorMatrix type="matrix" values="0 0 0 0 0 0 0 0 0 0 0 0 0 0 0 0 0 0 1 0"/>
<feBlend mode="normal" in2="BackgroundImageFix" result="effect1_dropShadow_6_4"/>
<feBlend mode="normal" in="SourceGraphic" in2="effect1_dropShadow_6_4" result="shape"/>
</filter>
</defs>
</svg>
